<?xml version="1.0" standalone="no"?>
<!DOCTYPE svg PUBLIC "-//W3C//DTD SVG 20010904//EN"
 "http://www.w3.org/TR/2001/REC-SVG-20010904/DTD/svg10.dtd">
<svg version="1.0" xmlns="http://www.w3.org/2000/svg"
 width="512.000000pt" height="512.000000pt" viewBox="0 0 512.000000 512.000000"
 preserveAspectRatio="xMidYMid meet">

<g transform="translate(0.000000,512.000000) scale(0.100000,-0.100000)"
fill="#000000" stroke="none">
<path d="M452 5100 c-109 -29 -187 -74 -273 -160 -54 -53 -86 -96 -112 -147
-64 -129 -68 -172 -65 -579 l3 -361 27 -40 c31 -47 77 -78 130 -88 l38 -7 2
-1527 c3 -1665 -1 -1536 58 -1693 66 -177 261 -372 438 -438 152 -57 117 -55
908 -55 l730 0 41 27 c62 41 88 90 88 168 0 78 -26 127 -88 168 l-41 27 -715
5 -716 5 -67 32 c-93 44 -151 100 -196 191 l-37 76 -3 1508 -2 1508 1959 0
1960 0 3 -398 3 -398 27 -41 c41 -62 90 -88 168 -88 78 0 127 26 168 88 l27
41 3 397 3 397 37 7 c53 10 99 41 130 88 l27 40 3 361 c3 407 -1 450 -65 579
-26 51 -58 94 -112 147 -87 87 -164 131 -277 160 -76 20 -117 20 -2108 19
-1967 0 -2033 -1 -2104 -19z m4171 -409 c21 -13 50 -42 65 -64 l27 -40 3 -234
3 -233 -2160 0 -2161 0 0 213 c0 118 5 229 11 250 13 47 77 113 121 126 21 6
793 9 2043 8 l2010 -2 38 -24z"/>
<path d="M2032 3309 c-47 -14 -109 -80 -123 -131 -23 -89 12 -182 88 -229 l38
-24 515 0 515 0 38 24 c21 13 50 42 65 64 23 34 27 52 27 107 0 55 -4 73 -27
107 -15 22 -44 51 -65 64 l-38 24 -500 2 c-298 1 -513 -2 -533 -8z"/>
<path d="M3630 2694 c-322 -40 -591 -171 -815 -398 -199 -201 -313 -415 -372
-696 -24 -118 -24 -382 0 -500 59 -284 174 -498 377 -700 202 -203 416 -318
700 -377 118 -24 382 -24 500 0 280 58 504 179 701 376 197 197 318 421 376
701 24 118 24 382 0 500 -39 185 -110 356 -212 510 -63 95 -258 291 -351 352
-161 107 -335 180 -506 213 -81 16 -328 28 -398 19z m375 -423 c333 -87 594
-350 687 -691 33 -122 33 -338 0 -460 -93 -344 -348 -599 -692 -692 -121 -32
-337 -32 -460 1 -341 91 -599 347 -692 688 -31 112 -31 354 0 466 103 377 407
648 797 710 69 12 281 -2 360 -22z"/>
<path d="M3702 1939 c-45 -13 -108 -80 -121 -126 -6 -21 -11 -88 -11 -150 l0
-111 -133 -4 c-125 -3 -136 -5 -174 -30 -63 -41 -88 -90 -88 -169 0 -54 5 -72
27 -106 15 -22 44 -51 65 -64 34 -21 52 -24 170 -27 l131 -4 4 -131 c3 -118 6
-136 27 -170 13 -21 42 -50 64 -65 34 -23 52 -27 107 -27 55 0 73 4 107 27 22
15 51 44 64 65 21 34 24 52 27 170 l4 131 131 4 c118 3 136 6 170 27 21 13 50
42 65 64 22 34 27 52 27 106 0 79 -25 128 -88 169 -38 25 -49 27 -173 30
l-132 4 -4 131 c-3 118 -6 136 -27 170 -47 76 -151 113 -239 86z"/>
</g>
</svg>
